HIERARCHY
ROOT Hips
{
	OFFSET 0.00000 0.00000 0.00000
	CHANNELS 6 Xposition Yposition Zposition Zrotation Yrotation Xrotation 
	JOINT LHipJoint
	{
		OFFSET 0 0 0
		CHANNELS 3 Zrotation Yrotation Xrotation
		JOINT LeftUpLeg
		{
			OFFSET 1.52977 -1.71332 0.88991
			CHANNELS 3 Zrotation Yrotation Xrotation
			JOINT LeftLeg
			{
				OFFSET 2.23949 -6.15296 0.00000
				CHANNELS 3 Zrotation Yrotation Xrotation
				JOINT LeftFoot
				{
					OFFSET 2.68396 -7.37412 0.00000
					CHANNELS 3 Zrotation Yrotation Xrotation
					JOINT LeftToeBase
					{
						OFFSET 0.20538 -0.56428 2.52710
						CHANNELS 3 Zrotation Yrotation Xrotation
						End Site
						{
							OFFSET 0.00000 -0.00000 1.29919
						}
					}
				}
			}
		}
	}
	JOINT RHipJoint
	{
		OFFSET 0 0 0
		CHANNELS 3 Zrotation Yrotation Xrotation
		JOINT RightUpLeg
		{
			OFFSET -1.45689 -1.71333 0.88991
			CHANNELS 3 Zrotation Yrotation Xrotation
			JOINT RightLeg
			{
				OFFSET -2.36700 -6.50329 0.00000
				CHANNELS 3 Zrotation Yrotation Xrotation
				JOINT RightFoot
				{
					OFFSET -2.69814 -7.41308 0.00000
					CHANNELS 3 Zrotation Yrotation Xrotation
					JOINT RightToeBase
					{
						OFFSET -0.18734 -0.51471 2.37479
						CHANNELS 3 Zrotation Yrotation Xrotation
						End Site
						{
							OFFSET -0.00000 -0.00000 1.22113
						}
					}
				}
			}
		}
	}
	JOINT LowerBack
	{
		OFFSET 0 0 0
		CHANNELS 3 Zrotation Yrotation Xrotation
		JOINT Spine
		{
			OFFSET 0.04294 2.14638 -0.31163
			CHANNELS 3 Zrotation Yrotation Xrotation
			JOINT Spine1
			{
				OFFSET -0.00400 2.17216 0.01486
				CHANNELS 3 Zrotation Yrotation Xrotation
				JOINT Neck
				{
					OFFSET 0 0 0
					CHANNELS 3 Zrotation Yrotation Xrotation
					JOINT Neck1
					{
						OFFSET 0.03869 1.76598 0.14916
						CHANNELS 3 Zrotation Yrotation Xrotation
						JOINT Head
						{
							OFFSET -0.00760 1.75513 -0.18948
							CHANNELS 3 Zrotation Yrotation Xrotation
							End Site
							{
								OFFSET -0.00601 1.82444 -0.08310
							}
						}
					}
				}
				JOINT LeftShoulder
				{
					OFFSET 0 0 0
					CHANNELS 3 Zrotation Yrotation Xrotation
					JOINT LeftArm
					{
						OFFSET 3.73696 0.92058 0.01733
						CHANNELS 3 Zrotation Yrotation Xrotation
						JOINT LeftForeArm
						{
							OFFSET 5.22771 -0.00000 0.00000
							CHANNELS 3 Zrotation Yrotation Xrotation
							JOINT LeftHand
							{
								OFFSET 3.45251 -0.00000 0.00000
								CHANNELS 3 Zrotation Yrotation Xrotation
								JOINT LeftFingerBase
								{
									OFFSET 0 0 0
									CHANNELS 3 Zrotation Yrotation Xrotation
									JOINT LeftHandIndex1
									{
										OFFSET 0.55212 -0.00000 0.00000
										CHANNELS 3 Zrotation Yrotation Xrotation
										End Site
										{
											OFFSET 0.44513 -0.00000 0.00000
										}
									}
								}
								JOINT LThumb
								{
									OFFSET 0 0 0
									CHANNELS 3 Zrotation Yrotation Xrotation
									End Site
									{
										OFFSET 0.45193 -0.00000 0.45193
									}
								}
							}
						}
					}
				}
				JOINT RightShoulder
				{
					OFFSET 0 0 0
					CHANNELS 3 Zrotation Yrotation Xrotation
					JOINT RightArm
					{
						OFFSET -3.63819 0.83094 -0.13694
						CHANNELS 3 Zrotation Yrotation Xrotation
						JOINT RightForeArm
						{
							OFFSET -5.23980 -0.00000 -0.00000
							CHANNELS 3 Zrotation Yrotation Xrotation
							JOINT RightHand
							{
								OFFSET -3.48042 -0.00000 -0.00000
								CHANNELS 3 Zrotation Yrotation Xrotation
								JOINT RightFingerBase
								{
									OFFSET 0 0 0
									CHANNELS 3 Zrotation Yrotation Xrotation
									JOINT RightHandIndex1
									{
										OFFSET -0.61871 -0.00000 0.00000
										CHANNELS 3 Zrotation Yrotation Xrotation
										End Site
										{
											OFFSET -0.49882 -0.00000 0.00000
										}
									}
								}
								JOINT RThumb
								{
									OFFSET 0 0 0
									CHANNELS 3 Zrotation Yrotation Xrotation
									End Site
									{
										OFFSET -0.50644 -0.00000 0.50644
									}
								}
							}
						}
					}
				}
			}
		}
	}
}
MOTION
Frames: 8
Frame Time: .0083333
-33.4258 14.6596 -7.049 0 0 0 0 0 0 -21 0 0 0 0 0 0 0 0 0 0 0 0 0 0 21 0 0 0 0 0 0 0 0 0 0 0 0 0 0 0 0 0 0 0 0 0 0 -16 0 0 21 0 0 11 0 0 0 -8 0 0 0 0 0 0 0 0 0 0 0 0 0 0 0 0 0 0 0 0 8 0 0 0 0 0 0 0 0 0 0 0 0 0 0 0 0 0
-33.4258 14.6596 -7.0490 5.8011 -86.6914 5.3468 0.0000 0.0000 0.0000 -11.5910 -7.1381 -56.6597 13.8935 19.0814 71.8791 2.0390 -4.5193 -25.9655 0.1784 -2.7208 -7.5023 0.0000 0.0000 0.0000 15.8105 9.2729 -57.6644 -16.3612 -19.6795 79.3061 -3.2786 -0.3018 -34.4629 -0.0058 0.4921 -1.3521 0.9336 -0.5283 26.9410 0.4019 -1.0169 7.6480 0.2537 -0.7489 -6.3976 1.8728 -0.1813 -3.1384 0.8956 -0.7336 -19.6039 0.0226 -0.8536 -5.3968 -0.0000 0.0000 0.0000 -79.9522 -9.9122 35.6089 25.8222 -37.0326 -8.7804 -0.0000 0.0000 -24.4915 18.9303 12.6914 4.3091 -7.1250 0.0000 -0.0000 -7.6041 43.2426 0.3318 -0.0000 0.0000 0.0000 81.3870 10.4973 35.2535 -27.4440 38.5993 -9.7748 0.0000 -0.0000 -6.4472 -20.0633 -8.3739 3.0446 7.1250 -0.0000 -0.0000 5.8917 -38.8231 0.9002
-33.3950 14.6129 -7.0469 6.6397 -86.6647 4.8719 0.0000 0.0000 0.0000 -11.4694 -7.4368 -57.5554 14.0970 19.1432 72.5005 2.0525 -4.3963 -26.0745 0.1743 -2.6896 -7.4157 0.0000 0.0000 0.0000 15.5769 9.4660 -58.5653 -16.5666 -19.7150 79.9153 -3.2932 -0.3293 -34.5487 -0.0066 0.5236 -1.4387 0.8968 -0.5259 27.1417 0.3715 -1.0200 7.5856 0.2467 -0.7488 -6.5652 1.8087 -0.2307 -2.9659 1.0719 -0.7805 -19.9446 0.0937 -0.8939 -5.5319 -0.0000 -0.0000 0.0000 -79.8835 -10.0934 35.5936 26.0082 -37.2169 -8.8926 -0.0000 0.0000 -24.5715 18.9427 12.6981 4.3143 -7.1250 0.0000 -0.0000 -7.5943 43.2507 0.3299 -0.0000 -0.0000 0.0000 81.3632 10.6531 35.2303 -27.4475 38.6026 -9.7770 0.0000 -0.0000 -6.4584 -20.0834 -8.4341 3.0696 7.1250 -0.0000 -0.0000 5.8826 -38.8880 0.8894
-33.3682 14.5736 -7.0398 6.8659 -86.7459 4.8867 0.0000 0.0000 0.0000 -11.3619 -7.5931 -58.2489 14.2754 19.1954 73.0437 2.0611 -4.2546 -26.1544 0.1773 -2.7126 -7.4796 0.0000 0.0000 0.0000 15.4039 9.7081 -59.2191 -16.7268 -19.7412 80.3901 -3.3025 -0.4131 -34.6239 -0.0062 0.5073 -1.3939 0.9421 -0.5046 27.4300 0.3277 -0.9836 7.5541 0.1663 -0.7324 -6.7420 1.9239 -0.1508 -2.6736 0.7857 -0.7165 -20.4062 -0.0142 -0.8646 -5.7275 -0.0000 0.0000 0.0000 -79.8110 -10.2541 35.6105 26.2106 -37.4159 -9.0153 -0.0000 0.0000 -24.6719 18.9054 12.8604 4.3591 -7.1250 0.0000 -0.0000 -7.6607 43.4155 0.3014 -0.0000 0.0000 0.0000 81.3312 10.8073 35.2037 -27.4693 38.6231 -9.7907 0.0000 -0.0000 -6.4785 -20.0821 -8.3603 3.0428 7.1250 -0.0000 -0.0000 5.8737 -38.8101 0.8993
-33.3465 14.5382 -7.0318 6.8447 -86.8991 5.0990 0.0000 0.0000 0.0000 -11.2711 -7.6408 -58.8505 14.4515 19.2453 73.5787 2.0863 -4.1867 -26.3328 0.1698 -2.6544 -7.3179 0.0000 0.0000 0.0000 15.2737 9.9596 -59.7035 -16.8698 -19.7634 80.8131 -3.3293 -0.2600 -34.7174 -0.0028 0.3398 -0.9337 0.9110 -0.4776 27.6944 0.3017 -0.9644 7.5735 0.1537 -0.7259 -6.8490 1.9010 -0.1315 -2.5802 0.8423 -0.6902 -20.7002 0.0089 -0.8641 -5.8359 0.0000 -0.0000 0.0000 -79.7906 -10.4467 35.4522 26.3569 -37.5590 -9.1043 -0.0000 0.0000 -24.7450 18.9248 13.0234 4.4181 -7.1250 0.0000 -0.0000 -7.6765 43.5870 0.2694 0.0000 -0.0000 0.0000 81.2971 11.0826 35.2790 -27.4590 38.6134 -9.7842 0.0000 -0.0000 -6.4491 -20.0998 -8.3632 3.0467 7.1250 -0.0000 -0.0000 5.8590 -38.8145 0.8964
-33.3239 14.4973 -7.0247 6.7245 -86.9883 5.4397 0.0000 0.0000 0.0000 -11.1531 -7.7552 -59.5190 14.6344 19.2953 74.1328 2.1040 -4.0940 -26.4650 0.1664 -2.6280 -7.2447 0.0000 0.0000 0.0000 15.1545 10.1604 -60.1801 -17.0057 -19.7837 81.2149 -3.3784 0.1695 -34.8462 -0.0000 -0.0103 0.0282 0.9283 -0.4655 27.9502 0.2764 -0.9483 7.5693 0.1149 -0.7201 -6.9784 1.9197 -0.1124 -2.4331 0.8052 -0.6769 -21.0346 -0.0037 -0.8672 -5.9671 0.0000 0.0000 0.0000 -79.7576 -10.6251 35.3683 26.5139 -37.7117 -9.2002 -0.0000 0.0000 -24.8284 18.8930 13.1418 4.4493 -7.1250 0.0000 -0.0000 -7.7298 43.7064 0.2483 0.0000 0.0000 0.0000 81.2606 11.3076 35.3087 -27.4613 38.6156 -9.7857 0.0000 -0.0000 -6.4481 -20.1185 -8.3563 3.0473 7.1250 -0.0000 -0.0000 5.8420 -38.8086 0.8946
-33.3031 14.4562 -7.0174 6.3392 -87.0718 6.0235 0.0000 0.0000 0.0000 -11.0262 -7.8591 -60.1540 14.8146 19.3427 74.6775 2.1220 -4.0117 -26.5969 0.1627 -2.5990 -7.1643 0.0000 0.0000 0.0000 15.0688 10.3332 -60.5493 -17.1268 -19.8009 81.5724 -3.4461 0.8825 -34.9972 -0.0074 -0.5545 1.5236 0.9588 -0.4609 28.2098 0.2574 -0.9383 7.5704 0.0773 -0.7176 -7.1036 1.9411 -0.0921 -2.2957 0.7617 -0.6633 -21.3554 -0.0189 -0.8696 -6.0927 0.0000 -0.0000 0.0000 -79.7356 -10.7936 35.2737 26.6549 -37.8481 -9.2866 -0.0000 0.0000 -24.9083 18.8693 13.2293 4.4723 -7.1250 0.0000 -0.0000 -7.7694 43.7946 0.2326 0.0000 -0.0000 0.0000 81.2210 11.5340 35.3477 -27.4673 38.6212 -9.7894 0.0000 -0.0000 -6.4454 -20.1338 -8.3544 3.0492 7.1250 -0.0000 -0.0000 5.8286 -38.8077 0.8927
-33.2836 14.4176 -7.0103 5.9159 -87.1320 6.6351 0.0000 0.0000 0.0000 -10.9046 -7.9718 -60.7501 14.9829 19.3855 75.1851 2.1391 -3.9416 -26.7207 0.1580 -2.5613 -7.0597 0.0000 0.0000 0.0000 14.9923 10.4722 -60.8888 -17.2396 -19.8163 81.9054 -3.5101 1.6405 -35.1292 -0.0298 -1.1151 3.0656 0.9946 -0.4677 28.4661 0.2432 -0.9408 7.5733 0.0459 -0.7211 -7.2248 1.9509 -0.0750 -2.1772 0.7380 -0.6516 -21.6577 -0.0260 -0.8732 -6.2096 0.0000 -0.0000 0.0000 -79.7219 -10.9555 35.1759 26.7764 -37.9652 -9.3613 -0.0000 0.0000 -24.9820 18.8589 13.2921 4.4904 -7.1250 0.0000 -0.0000 -7.7920 43.8587 0.2209 0.0000 -0.0000 0.0000 81.1807 11.7579 35.3895 -27.4789 38.6320 -9.7966 0.0000 -0.0000 -6.4430 -20.1438 -8.3623 3.0537 7.1250 -0.0000 -0.0000 5.8211 -38.8168 0.8902
